<svg width="10" height="10" viewBox="0 0 28 28" fill="none" xmlns="http://www.w3.org/2000/svg">
<path d="M6.66663 0.666626C9.27996 0.666626 11.5066 2.33329 12.32 4.66663H27.3333V8.66663H22V12.6666H18V8.66663H12.32C11.5066 11 9.27996 12.6666 6.66663 12.6666C3.33329 12.6666 0.666626 9.99996 0.666626 6.66663C0.666626 3.33329 3.33329 0.666626 6.66663 0.666626ZM6.66663 4.66663C6.13619 4.66663 5.62749 4.87734 5.25241 5.25241C4.87734 5.62749 4.66663 6.13619 4.66663 6.66663C4.66663 7.19706 4.87734 7.70577 5.25241 8.08084C5.62749 8.45591 6.13619 8.66663 6.66663 8.66663C7.19706 8.66663 7.70577 8.45591 8.08084 8.08084C8.45591 7.70577 8.66663 7.19706 8.66663 6.66663C8.66663 6.13619 8.45591 5.62749 8.08084 5.25241C7.70577 4.87734 7.19706 4.66663 6.66663 4.66663ZM6.66663 15.3333C9.27996 15.3333 11.5066 17 12.32 19.3333H27.3333V23.3333H24.6666V27.3333H22V23.3333H19.3333V27.3333H15.3333V23.3333H12.32C11.5066 25.6666 9.27996 27.3333 6.66663 27.3333C3.33329 27.3333 0.666626 24.6666 0.666626 21.3333C0.666626 18 3.33329 15.3333 6.66663 15.3333ZM6.66663 19.3333C6.13619 19.3333 5.62749 19.544 5.25241 19.9191C4.87734 20.2942 4.66663 20.8029 4.66663 21.3333C4.66663 21.8637 4.87734 22.3724 5.25241 22.7475C5.62749 23.1226 6.13619 23.3333 6.66663 23.3333C7.19706 23.3333 7.70577 23.1226 8.08084 22.7475C8.45591 22.3724 8.66663 21.8637 8.66663 21.3333C8.66663 20.8029 8.45591 20.2942 8.08084 19.9191C7.70577 19.544 7.19706 19.3333 6.66663 19.3333Z" fill="#4368C8"/>
</svg>
