<svg width="10" height="10" viewBox="0 0 32 32" fill="none" xmlns="http://www.w3.org/2000/svg">
<path d="M31.375 30.75H29.0306V6.50394C29.0306 6.15875 28.7508 5.87894 28.4056 5.87894H24.9367V3.625C24.9367 3.27981 24.6569 3 24.3117 3H20.875V0.625C20.875 0.279813 20.5952 0 20.25 0H11.75C11.4048 0 11.125 0.279813 11.125 0.625V3H7.68837C7.34319 3 7.06337 3.27981 7.06337 3.625V5.87894H3.59444C3.24925 5.87894 2.96944 6.15875 2.96944 6.50394V30.75H0.625C0.279813 30.75 0 31.0298 0 31.375C0 31.7202 0.279813 32 0.625 32H31.375C31.7202 32 32 31.7202 32 31.375C32 31.0298 31.7202 30.75 31.375 30.75ZM12.375 1.25H19.625V3H12.375V1.25ZM18.625 30.75H14.3006L18.625 26.4256V30.75ZM18.625 24.6617C18.6111 24.6734 18.5973 24.6854 18.5842 24.6986L13.375 29.9077V27.2589L17.3839 23.25H18.625V24.6617ZM13.375 25.4911V23.25H15.6161L13.375 25.4911ZM27.7806 30.75H23.5944H19.875V23.25H20.0938C20.4389 23.25 20.7188 22.9702 20.7188 22.625C20.7188 22.2798 20.4389 22 20.0938 22H11.9062C11.5611 22 11.2812 22.2798 11.2812 22.625C11.2812 22.9702 11.5611 23.25 11.9062 23.25H12.125V30.75H4.21944V7.12894H11.1574C11.5026 7.12894 11.7824 6.84913 11.7824 6.50394C11.7824 6.15875 11.5026 5.87894 11.1574 5.87894H8.31338V4.25H23.6867V5.87894H16.0952C15.7501 5.87894 15.4703 6.15875 15.4703 6.50394C15.4703 6.84913 15.7501 7.12894 16.0952 7.12894H27.7806V30.75Z" fill="#3C64B1"/>
</svg>
