<svg width="10" height="10" viewBox="0 0 30 32" fill="none" xmlns="http://www.w3.org/2000/svg">
<path d="M28.125 32C28.6427 32 29.0625 31.5802 29.0625 31.0625V17.8125C29.0625 17.2948 28.6427 16.875 28.125 16.875C27.6073 16.875 27.1875 17.2948 27.1875 17.8125V20.625H25.1513C24.7643 19.5339 23.7222 18.75 22.5 18.75H12.1875C12.1875 16.6823 10.5052 15 8.4375 15C6.36975 15 4.6875 16.6823 4.6875 18.75C4.6875 19.4328 4.87181 20.0729 5.192 20.625H2.8125V14.0625C2.8125 13.5447 2.39275 13.125 1.875 13.125C1.35725 13.125 0.9375 13.5447 0.9375 14.0625V31.0625C0.9375 31.5802 1.35725 32 1.875 32C2.39275 32 2.8125 31.5802 2.8125 31.0625V28.1875H27.1875V31.0625C27.1875 31.5802 27.6073 32 28.125 32ZM22.5 20.625C23.0169 20.625 23.4375 21.0456 23.4375 21.5625V26.3125H12.1875C12.1875 25.609 12.1875 21.4882 12.1875 20.625H22.5ZM6.5625 18.75C6.5625 17.7161 7.40363 16.875 8.4375 16.875C9.47137 16.875 10.3125 17.7161 10.3125 18.75V20.625H8.4375C7.40363 20.625 6.5625 19.7839 6.5625 18.75ZM2.8125 22.5H10.3125V26.3125H2.8125V22.5ZM25.3125 26.3125V22.5H27.1875V26.3125H25.3125Z" fill="#3C64B1"/>
<path d="M7.50007 1.87503C6.98232 1.87503 6.56257 2.29478 6.56257 2.81253V5.81222L1.33014 9.54966C0.908825 9.85059 0.811262 10.4362 1.1122 10.8575C1.41307 11.2787 1.99864 11.3763 2.42001 11.0754L15.0001 2.08966L27.5801 11.0754C27.9996 11.375 28.5856 11.2806 28.8879 10.8575C29.1889 10.4362 29.0913 9.85059 28.67 9.54966L15.545 0.174656C15.219 -0.0582187 14.7811 -0.0582187 14.4551 0.174656L8.43757 4.47297V2.81253C8.43757 2.29478 8.01783 1.87503 7.50007 1.87503Z" fill="#3C64B1"/>
</svg>
