<svg width="10" height="10" viewBox="0 0 25 30" fill="none" xmlns="http://www.w3.org/2000/svg">
<path d="M12.5 29.0834C14.1042 29.0834 15.4167 27.7709 15.4167 26.1667H9.58337C9.58337 27.7709 10.8959 29.0834 12.5 29.0834ZM21.25 20.3334V13.0417C21.25 8.56463 18.873 4.81671 14.6875 3.82504V2.83337C14.6875 1.62296 13.7105 0.645874 12.5 0.645874C11.2896 0.645874 10.3125 1.62296 10.3125 2.83337V3.82504C6.14171 4.81671 3.75004 8.55004 3.75004 13.0417V20.3334L0.833374 23.25V24.7084H24.1667V23.25L21.25 20.3334ZM18.3334 21.7917H6.66671V13.0417C6.66671 9.42504 8.86879 6.47921 12.5 6.47921C16.1313 6.47921 18.3334 9.42504 18.3334 13.0417V21.7917Z" fill="#4368C8"/>
</svg>
