<svg width="10" height="10" viewBox="0 0 30 30" fill="none" xmlns="http://www.w3.org/2000/svg">
<path d="M21 17.8125C19.0781 17.8125 18.154 18.75 15 18.75C11.846 18.75 10.9286 17.8125 9 17.8125C4.03125 17.8125 0 21.3398 0 25.6875V27.1875C0 28.7402 1.43973 30 3.21429 30H26.7857C28.5603 30 30 28.7402 30 27.1875V25.6875C30 21.3398 25.9688 17.8125 21 17.8125ZM26.7857 27.1875H3.21429V25.6875C3.21429 22.8984 5.8125 20.625 9 20.625C9.97768 20.625 11.5647 21.5625 15 21.5625C18.4621 21.5625 20.0156 20.625 21 20.625C24.1875 20.625 26.7857 22.8984 26.7857 25.6875V27.1875ZM15 16.875C20.3237 16.875 24.6429 13.0957 24.6429 8.4375C24.6429 3.7793 20.3237 0 15 0C9.67634 0 5.35714 3.7793 5.35714 8.4375C5.35714 13.0957 9.67634 16.875 15 16.875ZM15 2.8125C18.5424 2.8125 21.4286 5.33789 21.4286 8.4375C21.4286 11.5371 18.5424 14.0625 15 14.0625C11.4576 14.0625 8.57143 11.5371 8.57143 8.4375C8.57143 5.33789 11.4576 2.8125 15 2.8125Z" fill="#4368C8"/>
</svg>
